<svg width="15" height="15" viewBox="0 0 15 15" fill="none" xmlns="http://www.w3.org/2000/svg">
<path fill-rule="evenodd" clip-rule="evenodd" d="M0 7.5C0 3.35786 3.35786 0 7.5 0C11.6421 0 15 3.35786 15 7.5C15 11.6421 11.6421 15 7.5 15C3.35786 15 0 11.6421 0 7.5ZM7.5 2C4.46243 2 2 4.46243 2 7.5C2 10.5376 4.46243 13 7.5 13C10.5376 13 13 10.5376 13 7.5C13 4.46243 10.5376 2 7.5 2ZM7.5 2.78571C8.05228 2.78571 8.5 3.23343 8.5 3.78571V7.08579L10.0642 8.65004C10.4548 9.04056 10.4548 9.67373 10.0642 10.0642C9.67373 10.4548 9.04056 10.4548 8.65004 10.0642L6.79289 8.20711C6.60536 8.01957 6.5 7.76522 6.5 7.5V3.78571C6.5 3.23343 6.94772 2.78571 7.5 2.78571Z" fill="#BCBCBE"/>
</svg>
