<svg width="15" height="15" viewBox="0 0 15 15" fill="none" xmlns="http://www.w3.org/2000/svg">
<path fill-rule="evenodd" clip-rule="evenodd" d="M2.09069 6.5H3.96459C4.12091 5.09108 4.54896 3.73108 5.21925 2.49371C3.61162 3.22729 2.41903 4.71245 2.09069 6.5ZM7.5 2.59871C6.69222 3.75978 6.17071 5.09705 5.97965 6.5H9.02035C8.82929 5.09705 8.30777 3.75978 7.5 2.59871ZM9.02035 8.5C8.82929 9.90295 8.30777 11.2402 7.5 12.4013C6.69222 11.2402 6.17071 9.90295 5.97965 8.5H9.02035ZM3.96459 8.5H2.09069C2.41903 10.2875 3.61162 11.7727 5.21925 12.5063C4.54896 11.2689 4.12091 9.90892 3.96459 8.5ZM9.78075 12.5063C10.451 11.2689 10.8791 9.90892 11.0354 8.5H12.9093C12.581 10.2875 11.3884 11.7727 9.78075 12.5063ZM12.9093 6.5H11.0354C10.8791 5.09108 10.451 3.73108 9.78075 2.49371C11.3884 3.22729 12.581 4.71245 12.9093 6.5ZM0 7.5C0 3.35786 3.35786 0 7.5 0C11.6421 0 15 3.35786 15 7.5C15 11.6421 11.6421 15 7.5 15C3.35786 15 0 11.6421 0 7.5Z" fill="#BCBCBE"/>
</svg>
