<svg width="60" height="40" viewBox="0 0 60 40" fill="none" xmlns="http://www.w3.org/2000/svg">
<path d="M40 20C40 25.5228 35.5228 30 30 30C24.4772 30 20 25.5228 20 20C20 14.4772 24.4772 10 30 10C35.5228 10 40 14.4772 40 20Z" fill="white"/>
<path fill-rule="evenodd" clip-rule="evenodd" d="M30 28C34.4183 28 38 24.4183 38 20C38 15.5817 34.4183 12 30 12C25.5817 12 22 15.5817 22 20C22 24.4183 25.5817 28 30 28ZM30 30C35.5228 30 40 25.5228 40 20C40 14.4772 35.5228 10 30 10C24.4772 10 20 14.4772 20 20C20 25.5228 24.4772 30 30 30Z" fill="#E9E9EA"/>
<path d="M5 0H20V2H5C3.34315 2 2 3.34315 2 5V15H0V5C0 2.23858 2.23858 0 5 0Z" fill="#E9E9EA"/>
<path d="M0 25V35C0 37.7614 2.23858 40 5 40H20V38H5C3.34315 38 2 36.6569 2 35V25H0Z" fill="#E9E9EA"/>
<path d="M58 25V35C58 36.6569 56.6569 38 55 38H40V40H55C57.7614 40 60 37.7614 60 35V25H58Z" fill="#E9E9EA"/>
<path d="M60 15V5C60 2.23858 57.7614 0 55 0H40V2H55C56.6569 2 58 3.34315 58 5V15H60Z" fill="#E9E9EA"/>
</svg>
