<svg width="15" height="17" viewBox="0 0 15 17" fill="none" xmlns="http://www.w3.org/2000/svg">
<path fill-rule="evenodd" clip-rule="evenodd" d="M7.5 2C4.47257 2 2.01809 4.43181 2.01809 7.42854C2.01809 9.75579 3.1922 11.6591 4.56211 13.0159C5.24375 13.691 5.95334 14.2089 6.54173 14.5525C6.83626 14.7246 7.08855 14.846 7.28095 14.9213C7.39581 14.9662 7.46673 14.9857 7.5 14.9941C7.53327 14.9857 7.60419 14.9662 7.71905 14.9213C7.91145 14.846 8.16374 14.7246 8.45827 14.5525C9.04666 14.2089 9.75625 13.691 10.4379 13.0159C11.8078 11.6591 12.9819 9.75579 12.9819 7.42854C12.9819 4.43181 10.5274 2 7.5 2ZM0 7.42854C0 3.326 3.35926 0 7.5 0C11.6407 0 15 3.326 15 7.42854C15 10.4584 13.4695 12.8408 11.8644 14.4305C11.0586 15.2287 10.213 15.8491 9.48294 16.2756C9.11824 16.4886 8.77045 16.6601 8.45997 16.7816C8.179 16.8915 7.83121 17 7.5 17C7.16879 17 6.821 16.8915 6.54003 16.7816C6.22955 16.6601 5.88176 16.4886 5.51706 16.2756C4.78697 15.8491 3.94143 15.2287 3.13557 14.4305C1.53046 12.8408 0 10.4584 0 7.42854ZM4.3273 7.42854C4.3273 5.69278 5.74901 4.2857 7.5 4.2857C9.25099 4.2857 10.6727 5.69278 10.6727 7.42854C10.6727 9.16429 9.25101 10.5714 7.5 10.5714C5.74899 10.5714 4.3273 9.16429 4.3273 7.42854ZM7.5 6.2857C6.86232 6.2857 6.34539 6.79859 6.34539 7.42854C6.34539 8.05852 6.86234 8.57142 7.5 8.57142C8.13766 8.57142 8.6546 8.05852 8.6546 7.42854C8.6546 6.79859 8.13768 6.2857 7.5 6.2857Z" fill="#BCBCBE"/>
</svg>
