<svg width="48" height="45" viewBox="0 0 48 45" fill="none" xmlns="http://www.w3.org/2000/svg">
<path fill-rule="evenodd" clip-rule="evenodd" d="M28.5859 42.6126C30.0571 42.1621 31.4874 41.5274 32.8155 40.7902V33.2547V21.6443V14.5798C32.8155 13.4126 31.8756 12.4707 30.711 12.4707C29.5463 12.4707 28.6064 13.4126 28.6064 14.5798V15.9518V36.0805V42.6126H28.5859Z" fill="#0AA9B4"/>
<path fill-rule="evenodd" clip-rule="evenodd" d="M20.1451 43.4928C20.7989 43.5542 21.4732 43.5747 22.1475 43.5747C22.9035 43.5747 23.6391 43.5337 24.3747 43.4518V20.6816C24.3747 19.5144 23.4348 18.5725 22.2701 18.5725C21.1054 18.5725 20.1655 19.5144 20.1655 20.6816V43.4723L20.1451 43.4928Z" fill="#00315C"/>
<path fill-rule="evenodd" clip-rule="evenodd" d="M47.2995 44.3077C48.2335 43.3846 48.2335 41.8667 47.2995 40.9231L40.3675 34.0718C42.775 30.5846 44.1656 26.359 44.1656 21.8256C44.1656 9.78462 34.2865 0 22.0828 0C9.8999 0 0 9.7641 0 21.8256C0 31.7128 6.64144 40.0615 15.7734 42.7282V26.8513C15.7734 25.6821 14.8187 24.7385 13.6357 24.7385C12.4527 24.7385 11.498 25.6821 11.498 26.8513V33.4974C8.2603 30.6256 6.22635 26.4615 6.22635 21.8256C6.22635 13.1692 13.3244 6.15385 22.1036 6.15385C30.862 6.15385 37.9808 13.1692 37.9808 21.8256C37.9808 23.4872 37.7109 25.0872 37.2336 26.5846V37.7231L43.8958 44.3077C44.8297 45.2308 46.3656 45.2308 47.3203 44.3077H47.2995Z" fill="#00315C"/>
</svg>
