<svg width="225" height="46" viewBox="0 0 225 46" fill="none" xmlns="http://www.w3.org/2000/svg">
<path d="M69.8569 39.9655C75.8852 39.9655 80.117 36.8276 80.117 31.2356C80.117 26.2471 76.9232 24.1954 71.2542 22.7069C66.4236 21.4598 65.2259 20.8563 65.2259 19.0057C65.2259 17.5575 66.4635 16.4713 68.8189 16.4713C71.1744 16.4713 73.6096 17.5172 76.0848 19.2471L79.2786 14.5805C76.4441 12.2874 72.9709 11 68.8988 11C63.1899 11 59.1178 14.3793 59.1178 19.4885C59.1178 25.1609 62.7508 26.7299 68.3798 28.1782C73.0507 29.3851 74.0088 30.1897 74.0088 31.7586C74.0088 33.4885 72.4918 34.4943 69.9767 34.4943C66.7829 34.4943 64.148 33.1667 61.6329 31.0747L58 35.4598C61.3535 38.477 65.6252 39.9655 69.8569 39.9655Z" fill="#00315C"/>
<path d="M84.8138 46H90.8819V36.7471C92.3191 38.477 94.3153 39.9655 97.549 39.9655C102.619 39.9655 107.29 36.023 107.29 28.8218C107.29 21.5402 102.539 17.5977 97.549 17.5977C94.3951 17.5977 92.3591 19.0862 90.8819 21.0977V18H84.8138V46ZM95.992 34.7759C93.1575 34.7759 90.8021 32.4023 90.8021 28.8218C90.8021 25.1609 93.1575 22.7874 95.992 22.7874C98.8265 22.7874 101.222 25.1609 101.222 28.7414C101.222 32.4425 98.8265 34.7759 95.992 34.7759Z" fill="#00315C"/>
<path d="M111.754 39.5632H117.822V31.5977C117.822 26.4483 120.297 23.9943 124.329 23.9943H124.648V17.5977C121.055 17.4368 119.059 19.3678 117.822 22.3448V18H111.754V39.5632Z" fill="#00315C"/>
<path d="M133.494 39.9655C136.449 39.9655 138.485 38.8793 139.962 37.2299V39.5632H145.83V27.0517C145.83 24.1552 145.112 21.7816 143.515 20.1724C141.998 18.6437 139.602 17.7586 136.289 17.7586C132.656 17.7586 130.34 18.4425 127.985 19.4885L129.502 24.1552C131.458 23.431 133.095 22.9885 135.411 22.9885C138.445 22.9885 140.002 24.3966 140.002 26.931V27.2931C138.485 26.7701 136.928 26.408 134.772 26.408C129.702 26.408 126.149 28.5805 126.149 33.2874C126.149 37.6322 129.462 39.9655 133.494 39.9655ZM135.331 35.7414C133.375 35.7414 132.017 34.7759 132.017 33.1264C132.017 31.1149 133.614 30.069 136.209 30.069C137.686 30.069 139.044 30.3908 140.082 30.8736V31.9598C140.082 34.1724 138.165 35.7414 135.331 35.7414Z" fill="#00315C"/>
<path d="M156.78 39.7241H162.289L170.713 18H164.405L159.574 32.4425L154.784 18H148.356L156.78 39.7241Z" fill="#00315C"/>
<path d="M170.579 39.5632H177.046V33.1264H170.579V39.5632Z" fill="#00315C"/>
<path d="M189.348 39.9655C192.422 39.9655 194.218 38.3161 195.615 36.5057V39.5632H201.684V18H195.615V30.0287C195.615 32.9253 194.138 34.4138 191.823 34.4138C189.507 34.4138 188.15 32.9253 188.15 30.0287V18H182.082V31.9598C182.082 36.908 184.756 39.9655 189.348 39.9655Z" fill="#00315C"/>
<path d="M206.396 39.5632H225V34.6149H213.902L225 22.3046V18H206.756V22.9483H217.455L206.396 35.2586V39.5632Z" fill="#00315C"/>
<path fill-rule="evenodd" clip-rule="evenodd" d="M28.5859 43.6126C30.0571 43.1621 31.4874 42.5274 32.8155 41.7902V34.2547V22.6443V15.5798C32.8155 14.4126 31.8756 13.4707 30.711 13.4707C29.5463 13.4707 28.6064 14.4126 28.6064 15.5798V16.9518V37.0805V43.6126H28.5859Z" fill="#0AA9B4"/>
<path fill-rule="evenodd" clip-rule="evenodd" d="M20.1451 44.4928C20.7989 44.5542 21.4732 44.5747 22.1475 44.5747C22.9035 44.5747 23.6391 44.5337 24.3747 44.4518V21.6816C24.3747 20.5144 23.4348 19.5725 22.2701 19.5725C21.1054 19.5725 20.1655 20.5144 20.1655 21.6816V44.4723L20.1451 44.4928Z" fill="#00315C"/>
<path fill-rule="evenodd" clip-rule="evenodd" d="M47.2995 45.3077C48.2335 44.3846 48.2335 42.8667 47.2995 41.9231L40.3675 35.0718C42.775 31.5846 44.1656 27.359 44.1656 22.8256C44.1656 10.7846 34.2865 1 22.0828 1C9.8999 1 0 10.7641 0 22.8256C0 32.7128 6.64144 41.0615 15.7734 43.7282V27.8513C15.7734 26.6821 14.8187 25.7385 13.6357 25.7385C12.4527 25.7385 11.498 26.6821 11.498 27.8513V34.4974C8.2603 31.6256 6.22635 27.4615 6.22635 22.8256C6.22635 14.1692 13.3244 7.15385 22.1036 7.15385C30.862 7.15385 37.9808 14.1692 37.9808 22.8256C37.9808 24.4872 37.7109 26.0872 37.2336 27.5846V38.7231L43.8958 45.3077C44.8297 46.2308 46.3656 46.2308 47.3203 45.3077H47.2995Z" fill="#00315C"/>
<path d="M95.8911 6.42495H97.1099C97.0465 7.00846 96.8793 7.53066 96.6084 7.99154C96.3376 8.45243 95.9546 8.81818 95.4594 9.08879C94.9643 9.35518 94.3464 9.48837 93.6058 9.48837C93.064 9.48837 92.571 9.38689 92.1266 9.18393C91.6865 8.98097 91.3077 8.69345 90.9903 8.32135C90.6729 7.94503 90.4274 7.49471 90.2539 6.9704C90.0846 6.44186 90 5.85412 90 5.20719V4.28753C90 3.64059 90.0846 3.05497 90.2539 2.53066C90.4274 2.00211 90.675 1.54968 90.9967 1.17336C91.3225 0.79704 91.714 0.5074 92.1711 0.30444C92.6281 0.10148 93.1423 0 93.7137 0C94.412 0 95.0024 0.131078 95.4848 0.393235C95.9673 0.655391 96.3418 1.01903 96.6084 1.48414C96.8793 1.94503 97.0465 2.47992 97.1099 3.08879H95.8911C95.8318 2.65751 95.7218 2.28753 95.561 1.97886C95.4002 1.66596 95.1716 1.42495 94.8754 1.25581C94.5791 1.08668 94.1919 1.00211 93.7137 1.00211C93.3032 1.00211 92.9413 1.08034 92.6281 1.23679C92.3192 1.39323 92.0589 1.61522 91.8473 1.90275C91.6399 2.19027 91.4834 2.53488 91.3776 2.93658C91.2717 3.33827 91.2188 3.78436 91.2188 4.27484V5.20719C91.2188 5.65962 91.2654 6.08457 91.3585 6.48203C91.4558 6.87949 91.6019 7.22833 91.7965 7.52854C91.9912 7.82875 92.2388 8.06554 92.5393 8.2389C92.8397 8.40803 93.1952 8.4926 93.6058 8.4926C94.1263 8.4926 94.5411 8.41015 94.85 8.24524C95.1589 8.08034 95.3917 7.84355 95.5483 7.53488C95.7091 7.22622 95.8234 6.85624 95.8911 6.42495Z" fill="#0AA9B4"/>
<path d="M103.179 2.49894V3.46934H99.7063V2.49894H103.179ZM99.8777 2.49894V9.36152H98.7033V2.49894H99.8777ZM104.22 2.49894V9.36152H103.039V2.49894H104.22Z" fill="#0AA9B4"/>
<path d="M107.28 3.81818V12H106.099V2.49894H107.178L107.28 3.81818ZM111.908 5.87315V6.00634C111.908 6.50529 111.848 6.96829 111.73 7.39535C111.611 7.81818 111.438 8.18605 111.209 8.49894C110.985 8.81184 110.708 9.05497 110.378 9.22833C110.047 9.40169 109.669 9.48837 109.241 9.48837C108.805 9.48837 108.42 9.41649 108.086 9.27273C107.752 9.12896 107.468 8.91966 107.235 8.64482C107.002 8.36998 106.816 8.04017 106.677 7.65539C106.541 7.27061 106.448 6.83721 106.397 6.35518V5.64482C106.448 5.13742 106.543 4.68288 106.683 4.28118C106.823 3.87949 107.007 3.537 107.235 3.2537C107.468 2.96617 107.749 2.74841 108.08 2.60042C108.41 2.4482 108.791 2.37209 109.222 2.37209C109.654 2.37209 110.037 2.45666 110.371 2.62579C110.706 2.7907 110.987 3.02748 111.216 3.33615C111.444 3.64482 111.615 4.0148 111.73 4.44609C111.848 4.87315 111.908 5.34884 111.908 5.87315ZM110.727 6.00634V5.87315C110.727 5.53066 110.691 5.2093 110.619 4.90909C110.547 4.60465 110.435 4.33827 110.282 4.10994C110.134 3.87738 109.944 3.69556 109.711 3.56448C109.478 3.42918 109.201 3.36152 108.879 3.36152C108.583 3.36152 108.325 3.41226 108.105 3.51374C107.889 3.61522 107.705 3.75264 107.553 3.926C107.4 4.09514 107.275 4.28964 107.178 4.50951C107.085 4.72516 107.015 4.94926 106.969 5.18182V6.82452C107.053 7.12051 107.172 7.39958 107.324 7.66173C107.476 7.91966 107.68 8.12896 107.934 8.28964C108.187 8.44609 108.507 8.52431 108.892 8.52431C109.21 8.52431 109.483 8.45877 109.711 8.3277C109.944 8.19239 110.134 8.00846 110.282 7.7759C110.435 7.54334 110.547 7.27696 110.619 6.97674C110.691 6.6723 110.727 6.34884 110.727 6.00634Z" fill="#0AA9B4"/>
<path d="M117.456 8.18816V4.65539C117.456 4.38478 117.401 4.15011 117.291 3.95137C117.185 3.74841 117.024 3.59197 116.808 3.48203C116.592 3.37209 116.326 3.31712 116.008 3.31712C115.712 3.31712 115.452 3.36786 115.228 3.46934C115.008 3.57082 114.834 3.70402 114.707 3.86892C114.584 4.03383 114.523 4.21142 114.523 4.40169H113.349C113.349 4.15645 113.412 3.91332 113.539 3.6723C113.666 3.43129 113.848 3.21353 114.085 3.01903C114.326 2.8203 114.614 2.66385 114.948 2.54968C115.287 2.43129 115.664 2.37209 116.078 2.37209C116.578 2.37209 117.018 2.45666 117.399 2.62579C117.784 2.79493 118.084 3.05074 118.3 3.39323C118.52 3.7315 118.63 4.15645 118.63 4.66808V7.86469C118.63 8.09302 118.649 8.33615 118.687 8.59408C118.73 8.85201 118.791 9.074 118.871 9.26004V9.36152H117.646C117.587 9.22622 117.54 9.04651 117.507 8.82241C117.473 8.59408 117.456 8.38266 117.456 8.18816ZM117.659 5.20085L117.672 6.02537H116.485C116.15 6.02537 115.852 6.05285 115.589 6.10782C115.327 6.15856 115.107 6.23679 114.929 6.34249C114.751 6.4482 114.616 6.5814 114.523 6.74207C114.43 6.89852 114.383 7.08245 114.383 7.29387C114.383 7.50951 114.432 7.70613 114.529 7.88372C114.627 8.06131 114.773 8.20296 114.967 8.30867C115.166 8.41015 115.41 8.46089 115.697 8.46089C116.057 8.46089 116.374 8.38478 116.65 8.23256C116.925 8.08034 117.143 7.89429 117.303 7.67442C117.468 7.45455 117.557 7.24101 117.57 7.03383L118.072 7.59831C118.042 7.7759 117.962 7.97252 117.83 8.18816C117.699 8.40381 117.524 8.61099 117.303 8.80972C117.088 9.00423 116.829 9.16702 116.529 9.2981C116.233 9.42495 115.898 9.48837 115.526 9.48837C115.06 9.48837 114.652 9.39746 114.301 9.21564C113.954 9.03383 113.683 8.7907 113.488 8.48626C113.298 8.17759 113.203 7.83298 113.203 7.45243C113.203 7.08457 113.274 6.7611 113.418 6.48203C113.562 6.19873 113.77 5.96406 114.04 5.77801C114.311 5.58774 114.637 5.44397 115.018 5.34672C115.399 5.24947 115.824 5.20085 116.294 5.20085H117.659Z" fill="#0AA9B4"/>
<path d="M123.702 6.34249H121.449L121.436 5.40381H123.277C123.641 5.40381 123.944 5.36786 124.185 5.29598C124.43 5.2241 124.614 5.11628 124.737 4.97252C124.86 4.82875 124.921 4.65116 124.921 4.43975C124.921 4.27484 124.885 4.13108 124.813 4.00846C124.746 3.88161 124.642 3.77801 124.502 3.69767C124.363 3.61311 124.189 3.5518 123.982 3.51374C123.779 3.47146 123.539 3.45032 123.264 3.45032H121.76V9.36152H120.585V2.49894H123.264C123.7 2.49894 124.092 2.537 124.439 2.61311C124.79 2.68922 125.088 2.8055 125.334 2.96195C125.584 3.11416 125.774 3.30867 125.905 3.54545C126.036 3.78224 126.102 4.06131 126.102 4.38266C126.102 4.58985 126.06 4.78647 125.975 4.97252C125.89 5.15856 125.766 5.32347 125.6 5.46723C125.435 5.61099 125.232 5.72939 124.991 5.82241C124.75 5.91121 124.473 5.96829 124.159 5.99366L123.702 6.34249ZM123.702 9.36152H121.023L121.607 8.41015H123.702C124.028 8.41015 124.299 8.36998 124.515 8.28964C124.731 8.20507 124.892 8.08668 124.997 7.93446C125.107 7.77801 125.162 7.59197 125.162 7.37632C125.162 7.16068 125.107 6.97674 124.997 6.82452C124.892 6.66808 124.731 6.54968 124.515 6.46934C124.299 6.38478 124.028 6.34249 123.702 6.34249H121.919L121.931 5.40381H124.159L124.585 5.75899C124.961 5.78858 125.281 5.88161 125.543 6.03805C125.806 6.1945 126.005 6.39323 126.14 6.63425C126.276 6.87104 126.343 7.12896 126.343 7.40803C126.343 7.72939 126.282 8.01268 126.159 8.25793C126.041 8.50317 125.867 8.70825 125.639 8.87315C125.41 9.03383 125.133 9.15645 124.807 9.24101C124.481 9.32135 124.113 9.36152 123.702 9.36152Z" fill="#0AA9B4"/>
<path d="M127.607 6.00634V5.86047C127.607 5.36575 127.678 4.90698 127.822 4.48414C127.966 4.05708 128.174 3.6871 128.444 3.37421C128.715 3.05708 129.043 2.81184 129.428 2.63848C129.814 2.46089 130.245 2.37209 130.723 2.37209C131.206 2.37209 131.64 2.46089 132.025 2.63848C132.414 2.81184 132.744 3.05708 133.015 3.37421C133.29 3.6871 133.5 4.05708 133.644 4.48414C133.788 4.90698 133.859 5.36575 133.859 5.86047V6.00634C133.859 6.50106 133.788 6.95983 133.644 7.38266C133.5 7.8055 133.29 8.17548 133.015 8.4926C132.744 8.8055 132.416 9.05074 132.031 9.22833C131.65 9.40169 131.219 9.48837 130.736 9.48837C130.254 9.48837 129.82 9.40169 129.435 9.22833C129.05 9.05074 128.72 8.8055 128.444 8.4926C128.174 8.17548 127.966 7.8055 127.822 7.38266C127.678 6.95983 127.607 6.50106 127.607 6.00634ZM128.781 5.86047V6.00634C128.781 6.34884 128.821 6.6723 128.902 6.97674C128.982 7.27696 129.103 7.54334 129.263 7.7759C129.428 8.00846 129.634 8.19239 129.879 8.3277C130.125 8.45877 130.41 8.52431 130.736 8.52431C131.058 8.52431 131.339 8.45877 131.58 8.3277C131.826 8.19239 132.029 8.00846 132.19 7.7759C132.351 7.54334 132.471 7.27696 132.552 6.97674C132.636 6.6723 132.679 6.34884 132.679 6.00634V5.86047C132.679 5.5222 132.636 5.20296 132.552 4.90275C132.471 4.59831 132.349 4.32981 132.184 4.09725C132.023 3.86047 131.82 3.67442 131.574 3.53911C131.333 3.40381 131.049 3.33615 130.723 3.33615C130.402 3.33615 130.118 3.40381 129.873 3.53911C129.632 3.67442 129.428 3.86047 129.263 4.09725C129.103 4.32981 128.982 4.59831 128.902 4.90275C128.821 5.20296 128.781 5.5222 128.781 5.86047Z" fill="#0AA9B4"/>
<path d="M140.512 2.49894V9.36152H139.338V2.49894H140.512ZM140.112 5.65116V6.61522C139.875 6.70402 139.634 6.78436 139.389 6.85624C139.147 6.92389 138.891 6.97886 138.621 7.02114C138.354 7.0592 138.064 7.07822 137.751 7.07822C137.209 7.07822 136.739 6.9852 136.342 6.79915C135.944 6.60888 135.637 6.32347 135.421 5.94292C135.205 5.55814 135.097 5.074 135.097 4.49049V2.48626H136.272V4.49049C136.272 4.87104 136.329 5.1797 136.443 5.41649C136.557 5.65328 136.725 5.82875 136.945 5.94292C137.165 6.05285 137.433 6.10782 137.751 6.10782C138.056 6.10782 138.341 6.0888 138.608 6.05074C138.879 6.00846 139.137 5.95349 139.382 5.88584C139.632 5.81818 139.875 5.73996 140.112 5.65116Z" fill="#0AA9B4"/>
<path d="M147.064 5.47357V6.42495H143.432V5.47357H147.064ZM143.68 2.49894V9.36152H142.506V2.49894H143.68ZM148.016 2.49894V9.36152H146.835V2.49894H148.016Z" fill="#0AA9B4"/>
<path d="M151.177 7.50317L154.345 2.49894H155.526V9.36152H154.345V4.35729L151.177 9.36152H150.009V2.49894H151.177V7.50317Z" fill="#0AA9B4"/>
<path d="M158.687 2.49894V9.36152H157.513V2.49894H158.687ZM163.194 2.49894L159.938 6.43129H158.294L158.116 5.40381H159.462L161.766 2.49894H163.194ZM161.931 9.36152L159.404 6.2537L160.16 5.40381L163.423 9.36152H161.931Z" fill="#0AA9B4"/>
<path d="M171.009 0.12685V9.36152H169.803V0.12685H171.009ZM173.98 0.12685V1.12896H166.838V0.12685H173.98Z" fill="#0AA9B4"/>
<path d="M178.5 8.18816V4.65539C178.5 4.38478 178.445 4.15011 178.335 3.95137C178.229 3.74841 178.068 3.59197 177.852 3.48203C177.636 3.37209 177.37 3.31712 177.052 3.31712C176.756 3.31712 176.496 3.36786 176.272 3.46934C176.051 3.57082 175.878 3.70402 175.751 3.86892C175.628 4.03383 175.567 4.21142 175.567 4.40169H174.392C174.392 4.15645 174.456 3.91332 174.583 3.6723C174.71 3.43129 174.892 3.21353 175.129 3.01903C175.37 2.8203 175.658 2.66385 175.992 2.54968C176.331 2.43129 176.707 2.37209 177.122 2.37209C177.622 2.37209 178.062 2.45666 178.443 2.62579C178.828 2.79493 179.128 3.05074 179.344 3.39323C179.564 3.7315 179.674 4.15645 179.674 4.66808V7.86469C179.674 8.09302 179.693 8.33615 179.731 8.59408C179.774 8.85201 179.835 9.074 179.915 9.26004V9.36152H178.69C178.631 9.22622 178.584 9.04651 178.551 8.82241C178.517 8.59408 178.5 8.38266 178.5 8.18816ZM178.703 5.20085L178.716 6.02537H177.528C177.194 6.02537 176.896 6.05285 176.633 6.10782C176.371 6.15856 176.151 6.23679 175.973 6.34249C175.795 6.4482 175.66 6.5814 175.567 6.74207C175.474 6.89852 175.427 7.08245 175.427 7.29387C175.427 7.50951 175.476 7.70613 175.573 7.88372C175.671 8.06131 175.817 8.20296 176.011 8.30867C176.21 8.41015 176.453 8.46089 176.741 8.46089C177.101 8.46089 177.418 8.38478 177.694 8.23256C177.969 8.08034 178.187 7.89429 178.347 7.67442C178.512 7.45455 178.601 7.24101 178.614 7.03383L179.115 7.59831C179.086 7.7759 179.005 7.97252 178.874 8.18816C178.743 8.40381 178.567 8.61099 178.347 8.80972C178.132 9.00423 177.873 9.16702 177.573 9.2981C177.277 9.42495 176.942 9.48837 176.57 9.48837C176.104 9.48837 175.696 9.39746 175.345 9.21564C174.998 9.03383 174.727 8.7907 174.532 8.48626C174.342 8.17759 174.246 7.83298 174.246 7.45243C174.246 7.08457 174.318 6.7611 174.462 6.48203C174.606 6.19873 174.814 5.96406 175.084 5.77801C175.355 5.58774 175.681 5.44397 176.062 5.34672C176.443 5.24947 176.868 5.20085 177.338 5.20085H178.703Z" fill="#0AA9B4"/>
<path d="M181.623 2.49894H182.797V8.39746H185.311V2.49894H186.492V8.39746H189V2.49894H190.174V9.36152H181.623V2.49894Z" fill="#0AA9B4"/>
<path d="M193.323 2.49894V9.36152H192.148V2.49894H193.323ZM197.83 2.49894L194.573 6.43129H192.929L192.751 5.40381H194.097L196.402 2.49894H197.83ZM196.567 9.36152L194.04 6.2537L194.795 5.40381L198.058 9.36152H196.567Z" fill="#0AA9B4"/>
<path d="M201.829 9.48837C201.351 9.48837 200.917 9.40803 200.528 9.24736C200.143 9.08245 199.811 8.85201 199.531 8.55603C199.256 8.26004 199.044 7.90909 198.896 7.50317C198.748 7.09725 198.674 6.65328 198.674 6.17125V5.90486C198.674 5.34672 198.757 4.84989 198.922 4.41438C199.087 3.97463 199.311 3.60254 199.595 3.2981C199.878 2.99366 200.2 2.76321 200.56 2.60677C200.919 2.45032 201.292 2.37209 201.677 2.37209C202.168 2.37209 202.591 2.45666 202.946 2.62579C203.306 2.79493 203.6 3.03171 203.829 3.33615C204.057 3.63636 204.227 3.99154 204.337 4.40169C204.447 4.80761 204.502 5.25159 204.502 5.73362V6.26004H199.372V5.30233H203.327V5.21353C203.31 4.90909 203.247 4.61311 203.137 4.32558C203.031 4.03805 202.862 3.80127 202.629 3.61522C202.396 3.42918 202.079 3.33615 201.677 3.33615C201.41 3.33615 201.165 3.39323 200.94 3.5074C200.716 3.61734 200.524 3.78224 200.363 4.00211C200.202 4.22199 200.077 4.49049 199.988 4.80761C199.899 5.12474 199.855 5.49049 199.855 5.90486V6.17125C199.855 6.49683 199.899 6.80338 199.988 7.09091C200.081 7.37421 200.215 7.62368 200.388 7.83932C200.566 8.05497 200.78 8.2241 201.029 8.34672C201.283 8.46935 201.571 8.53066 201.893 8.53066C202.307 8.53066 202.659 8.44609 202.946 8.27696C203.234 8.10782 203.486 7.88161 203.702 7.59831L204.413 8.16279C204.265 8.38689 204.076 8.60042 203.848 8.80338C203.619 9.00634 203.338 9.17125 203.004 9.2981C202.674 9.42495 202.282 9.48837 201.829 9.48837Z" fill="#0AA9B4"/>
<path d="M210.533 5.47357V6.42495H206.901V5.47357H210.533ZM207.149 2.49894V9.36152H205.975V2.49894H207.149ZM211.485 2.49894V9.36152H210.304V2.49894H211.485Z" fill="#0AA9B4"/>
<path d="M216.176 2.49894V9.36152H214.995V2.49894H216.176ZM218.48 2.49894V3.45032H212.735V2.49894H218.48Z" fill="#0AA9B4"/>
<path d="M223.584 8.18816V4.65539C223.584 4.38478 223.529 4.15011 223.419 3.95137C223.314 3.74841 223.153 3.59197 222.937 3.48203C222.721 3.37209 222.454 3.31712 222.137 3.31712C221.841 3.31712 221.58 3.36786 221.356 3.46934C221.136 3.57082 220.963 3.70402 220.836 3.86892C220.713 4.03383 220.652 4.21142 220.652 4.40169H219.477C219.477 4.15645 219.541 3.91332 219.668 3.6723C219.795 3.43129 219.977 3.21353 220.213 3.01903C220.455 2.8203 220.743 2.66385 221.077 2.54968C221.415 2.43129 221.792 2.37209 222.207 2.37209C222.706 2.37209 223.146 2.45666 223.527 2.62579C223.912 2.79493 224.213 3.05074 224.429 3.39323C224.649 3.7315 224.759 4.15645 224.759 4.66808V7.86469C224.759 8.09302 224.778 8.33615 224.816 8.59408C224.858 8.85201 224.92 9.074 225 9.26004V9.36152H223.775C223.716 9.22622 223.669 9.04651 223.635 8.82241C223.601 8.59408 223.584 8.38266 223.584 8.18816ZM223.788 5.20085L223.8 6.02537H222.613C222.279 6.02537 221.98 6.05285 221.718 6.10782C221.456 6.15856 221.236 6.23679 221.058 6.34249C220.88 6.4482 220.745 6.5814 220.652 6.74207C220.558 6.89852 220.512 7.08245 220.512 7.29387C220.512 7.50951 220.561 7.70613 220.658 7.88372C220.755 8.06131 220.901 8.20296 221.096 8.30867C221.295 8.41015 221.538 8.46089 221.826 8.46089C222.186 8.46089 222.503 8.38478 222.778 8.23256C223.053 8.08034 223.271 7.89429 223.432 7.67442C223.597 7.45455 223.686 7.24101 223.699 7.03383L224.2 7.59831C224.171 7.7759 224.09 7.97252 223.959 8.18816C223.828 8.40381 223.652 8.61099 223.432 8.80972C223.216 9.00423 222.958 9.16702 222.658 9.2981C222.361 9.42495 222.027 9.48837 221.655 9.48837C221.189 9.48837 220.781 9.39746 220.429 9.21564C220.082 9.03383 219.811 8.7907 219.617 8.48626C219.426 8.17759 219.331 7.83298 219.331 7.45243C219.331 7.08457 219.403 6.7611 219.547 6.48203C219.691 6.19873 219.898 5.96406 220.169 5.77801C220.44 5.58774 220.766 5.44397 221.147 5.34672C221.528 5.24947 221.953 5.20085 222.423 5.20085H223.788Z" fill="#0AA9B4"/>
</svg>
