<svg width="15" height="13" viewBox="0 0 15 13" fill="none" xmlns="http://www.w3.org/2000/svg">
<path fill-rule="evenodd" clip-rule="evenodd" d="M0.000176266 1.91667C0.000176266 0.845995 0.875832 0 1.92875 0H13.0716C14.1245 0 15.0002 0.845994 15.0002 1.91667V3.73031C15.0004 3.74284 15.0004 3.75535 15.0002 3.76785V11.0833C15.0002 12.154 14.1245 13 13.0716 13H1.92875C0.875832 13 0.000176266 12.154 0.000176266 11.0833V3.76784C-5.84572e-05 3.75535 -5.90532e-05 3.74284 0.000176266 3.73032V1.91667ZM2.00018 5.46224V11H13.0002V5.46224L7.9915 8.28765C7.68654 8.45967 7.31382 8.45967 7.00886 8.28765L2.00018 5.46224ZM13.0002 3.16597V2H2.00018V3.16597L7.50018 6.26853L13.0002 3.16597Z" fill="#BCBCBE"/>
</svg>
