<svg width="15" height="15" viewBox="0 0 15 15" fill="none" xmlns="http://www.w3.org/2000/svg">
<path fill-rule="evenodd" clip-rule="evenodd" d="M8.65004 0.292893C9.04056 -0.0976311 9.67373 -0.0976311 10.0642 0.292893L14.7071 4.93575C15.0976 5.32627 15.0976 5.95944 14.7071 6.34996L11.9219 9.1352L11.9209 9.13616L6.05707 15H1C0.447715 15 0 14.5523 0 14V8.94293L5.86396 3.07897L5.86468 3.07825L8.65004 0.292893ZM6.57143 5.19993L2 9.77136V13H5.22864L9.80007 8.42857L6.57143 5.19993ZM11.2143 7.01436L7.98564 3.78571L9.35714 2.41421L12.5858 5.64286L11.2143 7.01436ZM9.5 14C9.5 13.4477 9.94771 13 10.5 13H14C14.5523 13 15 13.4477 15 14C15 14.5523 14.5523 15 14 15H10.5C9.94771 15 9.5 14.5523 9.5 14Z" fill="#BCBCBE"/>
</svg>
