<svg width="15" height="15" viewBox="0 0 15 15" fill="none" xmlns="http://www.w3.org/2000/svg">
<path fill-rule="evenodd" clip-rule="evenodd" d="M3.57143 0H5.3151C6.59338 0 7.70762 0.86997 8.01764 2.11008L8.4781 3.95191C8.81792 5.31117 8.09529 6.70168 6.80922 7.21446C7.04897 7.62184 7.39027 7.96126 7.79916 8.19875C8.45587 6.80867 10.148 6.19506 11.5619 6.90201L13.4601 7.85112C14.4039 8.323 15 9.28759 15 10.3427V11.4286C15 13.401 13.401 15 11.4286 15H9.85714C4.41319 15 0 10.5868 0 5.14286V3.57143C0 1.59898 1.59898 0 3.57143 0ZM3.57143 2H5.3151C5.67564 2 5.98991 2.24538 6.07736 2.59515L6.53782 4.43699C6.63739 4.83529 6.41352 5.24311 6.02403 5.37294L5.15296 5.6633C4.69832 5.81485 4.42767 6.28122 4.52166 6.75115C4.89783 8.63199 6.36801 10.1022 8.24885 10.4783C8.71878 10.5723 9.18515 10.3017 9.3367 9.84704L9.57066 9.14516C9.72186 8.69155 10.2398 8.47703 10.6674 8.69086L12.5657 9.63998C12.8319 9.77307 13 10.0451 13 10.3427V11.4286C13 12.2964 12.2964 13 11.4286 13H9.85714C5.51776 13 2 9.48224 2 5.14286V3.57143C2 2.70355 2.70355 2 3.57143 2Z" fill="#BCBCBE"/>
</svg>
