<svg width="15" height="15" viewBox="0 0 15 15" fill="none" xmlns="http://www.w3.org/2000/svg">
<path fill-rule="evenodd" clip-rule="evenodd" d="M7.72146 0.292893C8.11199 -0.0976311 8.74515 -0.0976311 9.13568 0.292893L14.7071 5.86432C15.0976 6.25485 15.0976 6.88801 14.7071 7.27854C14.3166 7.66906 13.6834 7.66906 13.2929 7.27854L13.2532 7.23883L9.69819 12.9268L10.0642 13.2929C10.4548 13.6834 10.4548 14.3166 10.0642 14.7071C9.67373 15.0976 9.04056 15.0976 8.65004 14.7071L5.17857 11.2356L1.70711 14.7071C1.31658 15.0976 0.683417 15.0976 0.292893 14.7071C-0.0976311 14.3166 -0.0976311 13.6834 0.292893 13.2929L3.76436 9.82143L0.292893 6.34996C-0.0976311 5.95944 -0.0976311 5.32627 0.292893 4.93575C0.683417 4.54523 1.31658 4.54523 1.70711 4.93575L2.07317 5.30181L7.76117 1.74681L7.72146 1.70711C7.33094 1.31658 7.33094 0.683417 7.72146 0.292893ZM9.21255 3.19819L3.52455 6.75319L8.24681 11.4755L11.8018 5.78745L9.21255 3.19819Z" fill="#BCBCBE"/>
</svg>
