<svg width="21" height="20" viewBox="0 0 21 20" fill="none" xmlns="http://www.w3.org/2000/svg">
<path fill-rule="evenodd" clip-rule="evenodd" d="M0 8.71428C0 3.90152 4.09659 0 9.15 0C14.2034 0 18.3 3.90152 18.3 8.71428C18.3 10.7572 17.5618 12.636 16.3257 14.1219L20.6935 18.2939C21.103 18.685 21.102 19.3182 20.6914 19.7081C20.2807 20.0981 19.6159 20.0972 19.2065 19.7061L14.8422 15.5375C13.2798 16.7213 11.3016 17.4286 9.15 17.4286C4.09659 17.4286 0 13.5271 0 8.71428ZM9.15 2C5.25639 2 2.1 5.00609 2.1 8.71428C2.1 12.4225 5.25639 15.4286 9.15 15.4286C13.0436 15.4286 16.2 12.4225 16.2 8.71428C16.2 5.00609 13.0436 2 9.15 2Z" fill="#0AA9B4"/>
</svg>
